<mxfile host="app.diagrams.net" modified="2023-11-15T15:07:27.762Z" agent="Mozilla/5.0 (Macintosh; Intel Mac OS X 10_15_7) AppleWebKit/537.36 (KHTML, like Gecko) Chrome/117.0.0.0 Safari/537.36" version="22.1.1" etag="H1canvNQyLKUN-mXl9vT" type="github">
  <diagram name="Page-1" id="FYtfKGy5iZDygHYDWZK-">
    <mxGraphModel>
      <root>
        <mxCell id="0" />
        <mxCell id="1" parent="0" />
      </root>
    </mxGraphModel>
  </diagram>
</mxfile>
